:SAMPLES-PER-SECOND 30
:FULLY-SPECIFIED
:DEGREES
523
root  1.17766 34.4216 -19.2823 -69.254 84.4706 -97.8624
LeftUpLeg  -44.0071 19.3879 -10.1627
LeftLeg  15.1933 2.55305 0.518004
LeftFoot  4.8273 0.00227532 0.246132
LeftToes  -0.646774 7.65994e-007 1.12379e-007
Spine  16.0098 -1.10617 -2.13061
Spine1  31.5131 -2.44047 -2.75237
RightShoulder  0.117773 7.32745 -7.39342
RightArm  15.3247 -9.15823 79.882
RightForeArm  79.6897 79.5196 74.4491
RightHand  -0.0272332 0.959901 -2.89991
LeftShoulder1  0.249295 -6.13703 3.78135
LeftArm  6.02915 6.23729 -54.6977
LeftForeArm  84.2068 -79.5353 -74.6655
LeftHand  -0.613689 -4.59052 14.8734
HEad  -24.3731 0.163493 -4.64445
RightUpLeg  -45.0077 -9.21907 5.12314
RightLeg  18.8846 19.7125 5.2439
RightFoot  15.6068 -0.726521 5.67498
RightToes  -29.6435 -0.14227 -0.25032
524
root  1.17555 34.4631 -19.4365 -68.7606 84.2742 -97.338
LeftUpLeg  -43.6839 19.4897 -10.2503
LeftLeg  14.573 2.35517 0.451326
LeftFoot  4.96957 0.000586977 0.258378
LeftToes  -0.255213 7.65994e-007 1.12379e-007
Spine  15.9831 -0.846549 -1.99741
Spine1  31.5268 -1.67403 -3.09571
RightShoulder  0.120378 7.25193 -7.34582
RightArm  15.1317 -9.43737 79.7045
RightForeArm  79.8489 79.5536 75.1566
RightHand  -0.027845 0.867025 -3.33406
LeftShoulder1  0.204945 -5.81606 3.0787
LeftArm  10.1909 9.49279 -51.6841
LeftForeArm  94.0929 -79.7629 -80.6181
LeftHand  -1.0269 -6.50369 17.5754
HEad  -22.7119 1.03496 -4.86629
RightUpLeg  -44.93 -8.69004 4.72877
RightLeg  18.8478 19.0127 5.05261
RightFoot  15.9193 -0.730275 5.59661
RightToes  -29.978 -0.143769 -0.251813
525
root  1.19648 34.4997 -19.545 -72.5196 84.0094 -100.735
LeftUpLeg  -42.8545 19.2878 -9.92575
LeftLeg  13.81 2.21812 0.394524
LeftFoot  5.18287 -0.0010546 0.268308
LeftToes  -0.0364741 7.65994e-007 1.12379e-007
Spine  16.0033 -0.689502 -1.78965
Spine1  31.6234 -1.16732 -3.22835
RightShoulder  0.12313 7.1476 -7.32284
RightArm  14.7552 -9.76253 79.543
RightForeArm  79.9048 79.5765 75.6522
RightHand  -0.0289194 0.823077 -3.68399
LeftShoulder1  0.159851 -5.54442 2.31548
LeftArm  14.5879 12.7129 -48.2465
LeftForeArm  107.477 -79.8924 -90.426
LeftHand  -1.5611 -8.3969 20.6747
HEad  -20.9442 1.82482 -5.1254
RightUpLeg  -44.3904 -8.30402 4.3134
RightLeg  18.7232 18.3343 4.83746
RightFoot  16.1353 -0.723144 5.47574
RightToes  -30.5773 -0.147917 -0.255958
526
root  1.21942 34.5422 -19.6207 -79.9914 83.5538 -107.674
LeftUpLeg  -41.7744 18.5903 -9.15893
LeftLeg  13.0498 2.29747 0.377404
LeftFoot  5.50061 -0.00365319 0.291747
LeftToes  0.102049 7.65994e-007 1.12379e-007
Spine  16.0472 -0.607698 -1.5226
Spine1  31.7601 -0.86949 -3.14795
RightShoulder  0.126034 7.01344 -7.26926
RightArm  14.3937 -9.91868 79.3176
RightForeArm  79.3258 79.5515 75.106
RightHand  -0.0283278 0.778656 -3.82936
LeftShoulder1  0.115107 -5.134 1.75654
LeftArm  19.1513 15.2807 -44.9925
LeftForeArm  121.25 -79.6797 -101.642
LeftHand  -2.12502 -10.058 23.4483
HEad  -19.2276 3.02989 -5.652
RightUpLeg  -43.5527 -7.77303 3.80297
RightLeg  18.4328 17.2919 4.48002
RightFoot  16.5263 -0.711487 5.27352
RightToes  -31.695 -0.155765 -0.263572
527
root  1.24333 34.5824 -19.6443 -89.3492 82.8655 -116.47
LeftUpLeg  -40.7946 17.7029 -8.2597
LeftLeg  12.5465 2.25737 0.350523
LeftFoot  5.79641 -0.00510512 0.296228
LeftToes  0.0543579 7.65994e-007 1.12379e-007
Spine  16.0783 -0.56272 -1.16504
Spine1  31.8655 -0.724962 -2.7616
RightShoulder  0.128861 6.97036 -7.24542
RightArm  14.0271 -10.0692 78.8783
RightForeArm  78.1274 79.5448 74.9547
RightHand  -0.00366295 0.10675 -3.79405
LeftShoulder1  0.0765308 -4.65805 1.46623
LeftArm  23.1851 16.9347 -42.7264
LeftForeArm  131.129 -79.261 -109.82
LeftHand  -2.52135 -11.1155 25.132
HEad  -17.3446 4.00787 -5.72364
RightUpLeg  -42.62 -7.10364 3.25771
RightLeg  18.1479 15.8172 4.02654
RightFoot  16.8271 -0.667021 4.88474
RightToes  -32.8484 -0.164019 -0.271267
528
root  1.27545 34.6037 -19.6113 -97.8097 81.9332 -124.245
LeftUpLeg  -39.8994 17.0304 -7.35168
LeftLeg  12.3458 1.87156 0.283703
LeftFoot  5.91743 -0.00370901 0.255537
LeftToes  0.0113057 7.65994e-007 1.12379e-007
Spine  16.1099 -0.508494 -0.693677
Spine1  31.9655 -0.636775 -2.05065
RightShoulder  0.131564 6.9854 -7.27309
RightArm  13.6762 -10.0862 78.1809
RightForeArm  76.8755 79.5654 75.3784
RightHand  0.0347122 -0.929667 -3.87915
LeftShoulder1  0.0470533 -4.3643 0.714593
LeftArm  26.721 17.8373 -41.0132
LeftForeArm  137.832 -78.9722 -113.711
LeftHand  -3.10048 -12.1247 28.2374
HEad  -15.481 5.08497 -6.04833
RightUpLeg  -41.5287 -6.39568 2.83788
RightLeg  17.8921 14.2124 3.56088
RightFoot  16.8964 -0.595289 4.38371
RightToes  -34.1058 -0.173192 -0.279465
529
root  1.2912 34.5928 -19.5342 -104.068 81.477 -130.082
LeftUpLeg  -39.484 16.3934 -6.97138
LeftLeg  12.5305 1.74794 0.270622
LeftFoot  5.87551 -0.00376638 0.236749
LeftToes  -0.101425 7.65994e-007 1.12379e-007
Spine  16.0191 -0.343898 -0.489279
Spine1  31.8032 -0.295705 -1.75144
RightShoulder  0.133647 6.67101 -7.14842
RightArm  13.4319 -9.96477 77.872
RightForeArm  77.7042 79.5763 75.6255
RightHand  0.0375883 -1.00695 -3.88011
LeftShoulder1  0.0248547 -4.15284 0.514427
LeftArm  29.43 18.199 -40.3971
LeftForeArm  138.795 -79.0205 -113.139
LeftHand  -3.43474 -12.5134 30.2358
HEad  -14.2755 5.70679 -6.1306
RightUpLeg  -40.7738 -5.41216 1.9293
RightLeg  17.6881 12.831 3.17327
RightFoot  16.5492 -0.507241 3.86417
RightToes  -34.9547 -0.179485 -0.284885
530
root  1.29505 34.56 -19.4157 -109.329 81.215 -134.8
LeftUpLeg  -39.1907 16.0587 -6.79858
LeftLeg  13.1008 1.50736 0.248506
LeftFoot  5.66633 -0.0028571 0.20248
LeftToes  -0.361453 7.65994e-007 1.12379e-007
Spine  15.8917 -0.183038 -0.403534
Spine1  31.5589 0.0405174 -1.62134
RightShoulder  0.134162 6.616 -7.31438
RightArm  13.4091 -9.71172 77.7689
RightForeArm  77.8356 79.5657 75.3957
RightHand  0.0526967 -1.30143 -4.2458
LeftShoulder1  0.00925602 -4.03559 0.24766
LeftArm  31.1523 18.3208 -40.5986
LeftForeArm  134.626 -79.4248 -107.244
LeftHand  -3.65336 -12.7861 31.4229
HEad  -12.4528 6.86095 -6.4798
RightUpLeg  -39.8322 -4.13744 0.793981
RightLeg  17.2821 11.7109 2.81346
RightFoot  15.8556 -0.417041 3.3715
RightToes  -35.1516 -0.17847 -0.284022
531
root  1.28568 34.501 -19.2592 -113.504 81.3872 -138.476
LeftUpLeg  -39.0614 16.1509 -7.04667
LeftLeg  13.8037 1.16691 0.206699
LeftFoot  5.31642 -0.00169776 0.164091
LeftToes  -0.57413 7.65994e-007 1.12379e-007
Spine  15.7574 0.0942387 -0.504928
Spine1  31.2591 0.675907 -1.88821
RightShoulder  0.144398 6.62242 -7.20134
RightArm  12.7337 -9.11811 77.8381
RightForeArm  79.5624 79.6527 77.4498
RightHand  0.124892 -3.31719 -3.93333
LeftShoulder1  -2.36244e-005 -3.76918 -0.0676078
LeftArm  32.3762 17.7728 -41.4529
LeftForeArm  124.587 -79.8639 -94.8667
LeftHand  -4.11855 -12.9856 34.7141
HEad  -11.0658 8.15101 -6.71202
RightUpLeg  -38.9402 -2.45546 -0.702272
RightLeg  16.7376 10.9383 2.52151
RightFoot  14.7757 -0.332393 2.94052
RightToes  -34.5351 -0.176364 -0.282218
532
root  1.23776 34.4103 -19.0451 -115.637 82.3084 -140.395
LeftUpLeg  -39.4258 16.8869 -7.87584
LeftLeg  14.6618 0.780175 0.149656
LeftFoot  4.96022 -0.000875417 0.130933
LeftToes  -1.27253 7.65994e-007 1.12379e-007
Spine  15.5499 0.521252 -0.926283
Spine1  30.7668 1.7001 -2.77938
RightShoulder  0.156483 6.51517 -7.04925
RightArm  11.809 -7.93074 78.4385
RightForeArm  79.9212 79.7217 79.3678
RightHand  0.184918 -4.53113 -4.2953
LeftShoulder1  -0.0040238 -3.70635 -0.373384
LeftArm  32.7549 17.3038 -42.2913
LeftForeArm  113.47 -79.8043 -81.6991
LeftHand  -4.45065 -12.6825 38.1956
HEad  -10.0349 9.69764 -6.95416
RightUpLeg  -38.5009 -0.640818 -2.37657
RightLeg  16.1494 10.8366 2.38248
RightFoot  13.5007 -0.272323 2.67783
RightToes  -34.7947 -0.178293 -0.283871
533
root  1.22821 34.3126 -18.8189 -120.763 82.9225 -145.493
LeftUpLeg  -39.9381 17.1717 -8.60855
LeftLeg  15.6765 0.408716 0.0850053
LeftFoot  4.55616 -0.000744237 0.108734
LeftToes  -2.26927 7.65994e-007 1.12379e-007
Spine  15.247 0.82903 -1.3696
Spine1  30.0316 2.53244 -3.84674
RightShoulder  0.176267 6.48611 -6.93187
RightArm  10.5618 -6.19211 79.3275
RightForeArm  79.8989 79.7476 80.1838
RightHand  0.217638 -4.92025 -4.6861
LeftShoulder1  -0.00667943 -3.72528 -0.52569
LeftArm  32.8693 17.2213 -43.0241
LeftForeArm  104.961 -79.4163 -72.1457
LeftHand  -4.52574 -12.0106 40.8263
HEad  -8.56297 11.2439 -6.88986
RightUpLeg  -38.0916 -0.397307 -3.34439
RightLeg  15.7337 11.7085 2.48349
RightFoot  11.6516 -0.219468 2.52814
RightToes  -34.4436 -0.173964 -0.280019
